<svg width="56" height="57" viewBox="0 0 56 57" fill="none" xmlns="http://www.w3.org/2000/svg">
<g clip-path="url(#clip0_3067_1427)">
<path d="M55.1623 35.15C51.4208 50.3124 36.2274 59.5405 21.224 55.7596C6.22693 51.9792 -2.90342 36.6214 0.83886 21.4598C4.57765 6.29583 19.7723 -2.93346 34.7706 0.847018C49.7719 4.6275 58.9019 19.9864 55.1623 35.15Z" fill="#F7931A"/>
<path d="M40.3401 24.3696C40.8974 20.6028 38.06 18.5788 34.1809 17.2281L35.4389 12.1264L32.3671 11.3523L31.1417 16.3196C30.3332 16.116 29.5045 15.9241 28.6796 15.7343L29.9128 10.734L26.8429 9.95996L25.5833 15.0609C24.9148 14.9068 24.2588 14.755 23.6214 14.5947L23.6245 14.5789L19.3879 13.5097L18.5705 16.8263C18.5705 16.8263 20.8498 17.3542 20.8015 17.3873C22.046 17.7013 22.2704 18.5335 22.233 19.1932L20.8 25.0052C20.8855 25.0276 20.9964 25.0587 21.1193 25.109C21.0166 25.083 20.9073 25.0551 20.7949 25.0276L18.7859 33.1688C18.6335 33.5509 18.2473 34.1244 17.3778 33.9066C17.4085 33.9515 15.1436 33.3433 15.1436 33.3433L13.6191 36.8974L17.6169 37.9049C18.3601 38.0932 19.09 38.2897 19.8071 38.4761L18.5366 43.6363L21.6054 44.4104L22.8642 39.3051C23.7034 39.5347 24.517 39.7474 25.3134 39.9475L24.0589 45.0287L27.1311 45.8027L28.4028 40.6523C33.6423 41.6539 37.5821 41.2498 39.2395 36.4606C40.5761 32.6043 39.1734 30.3797 36.417 28.9288C38.424 28.461 39.9368 27.126 40.3401 24.3696ZM33.321 34.3194C32.3706 38.1761 25.9477 36.0911 23.864 35.5679L25.551 28.7322C27.6335 29.257 34.3127 30.2972 33.321 34.3194ZM34.2699 24.3141C33.4043 27.8222 28.0574 26.0395 26.323 25.6023L27.8521 19.4023C29.5861 19.8394 35.1725 20.6551 34.2699 24.3141Z" fill="white"/>
</g>
<defs>
<clipPath id="clip0_3067_1427">
<rect width="56" height="57" fill="white"/>
</clipPath>
</defs>
</svg>
